# xmcd
#
# Track frame offsets:
#	180
#	21539
#	39335
#	57457
#	71933
#	89330
#	110647
#	128875
#	145643
#	163242
#	182400
#	214470
#
# Disc length: 3057 seconds
#
# Revision: 0
# Processed by: cddbd v1.5.2PL0 Copyright (c) Steve Scherf et al.
# Submitted via: dBpowerAMP V4.0
#
DISCID=b80bef0c
DTITLE=Marlaine Sisters - Marlaine Sisters
DYEAR=1900
DGENRE=
TTITLE0=Down In Mexico
TTITLE1=That's All Right With Me
TTITLE2=Ride The Wind
TTITLE3=You Taught Me To Cry
TTITLE4=No One Quite Like You
TTITLE5=Streets Of San Diego
TTITLE6=Cotton Candy
TTITLE7=I'll Be There
TTITLE8=Millers Bay
TTITLE9=Bright As Scarlet
TTITLE10=My Little Boy
TTITLE11=Lullaby Of Roses And Wine
EXTD=
EXTT0=
EXTT1=
EXTT2=
EXTT3=
EXTT4=
EXTT5=
EXTT6=
EXTT7=
EXTT8=
EXTT9=
EXTT10=
EXTT11=
PLAYORDER=
